<?xml version="1.0" encoding="iso-8859-1"?>
<!-- Generator: Adobe Illustrator 19.0.0, SVG Export Plug-In . SVG Version: 6.00 Build 0)  -->
<svg version="1.1" id="Layer_1" xmlns="http://www.w3.org/2000/svg" xmlns:xlink="http://www.w3.org/1999/xlink" x="0px" y="0px"
	 viewBox="0 0 512 512" style="enable-background:new 0 0 512 512;" xml:space="preserve">
<g>
	<path style="fill:#020202;" d="M142.035,69.711c-0.696-9.288-7.242-15.001-7.988-15.623c-1.331-1.109-3.021-1.72-4.755-1.72
		c-2.205,0-4.277,0.968-5.684,2.655c-2.611,3.135-2.193,7.805,0.876,10.361c0.025,0.023,2.591,2.357,2.795,5.49
		c0.153,2.328-1.025,4.919-3.5,7.703c-5.327,5.993-7.74,12.312-7.174,18.78c0.797,9.117,7.365,14.562,8.112,15.155
		c1.302,1.03,2.932,1.598,4.589,1.598c2.278,0,4.393-1.023,5.804-2.807c1.227-1.55,1.777-3.485,1.549-5.448
		c-0.228-1.964-1.208-3.722-2.69-4.892c-0.024-0.021-2.374-2.078-2.622-4.893c-0.197-2.253,0.979-4.83,3.494-7.657
		C140.1,82.494,142.521,76.202,142.035,69.711z"/>
	<path style="fill:#020202;" d="M204.461,69.711c-0.695-9.288-7.241-15.001-7.987-15.623c-1.332-1.109-3.019-1.72-4.754-1.72
		c-2.206,0-4.277,0.968-5.686,2.655c-2.61,3.135-2.192,7.804,0.878,10.362c0.025,0.023,2.591,2.355,2.794,5.489
		c0.152,2.328-1.026,4.919-3.5,7.703c-5.327,5.992-7.74,12.311-7.175,18.78c0.797,9.117,7.365,14.562,8.113,15.155
		c1.302,1.03,2.933,1.598,4.588,1.598c2.278,0,4.394-1.023,5.806-2.807c1.227-1.55,1.777-3.485,1.548-5.448
		c-0.228-1.964-1.207-3.722-2.691-4.892c-0.023-0.021-2.374-2.078-2.62-4.893c-0.197-2.253,0.977-4.83,3.493-7.657
		C202.529,82.494,204.948,76.202,204.461,69.711z"/>
	<path style="fill:#020202;" d="M266.89,69.71c-0.696-9.292-7.242-15.001-7.987-15.622c-1.328-1.105-3.009-1.714-4.734-1.714
		c-2.203,0-4.277,0.97-5.688,2.662c-2.578,3.093-2.197,7.69,0.892,10.373l-0.002,0.001c0.025,0.023,2.529,2.318,2.761,5.404
		c0.174,2.344-1.001,4.956-3.496,7.762c-5.327,5.992-7.741,12.311-7.176,18.78c0.798,9.105,7.365,14.56,8.116,15.157
		c1.302,1.028,2.931,1.596,4.586,1.596c2.278,0,4.393-1.023,5.806-2.807c2.533-3.2,1.99-7.864-1.144-10.341
		c-0.023-0.021-2.374-2.078-2.62-4.893c-0.199-2.253,0.977-4.83,3.493-7.657C264.955,82.495,267.376,76.203,266.89,69.71z"/>
	<path style="fill:#020202;" d="M329.319,69.711c-0.694-9.288-7.242-15.001-7.987-15.623c-1.332-1.109-3.019-1.72-4.754-1.72
		c-2.207,0-4.279,0.968-5.686,2.655c-2.611,3.135-2.192,7.805,0.876,10.361c0.027,0.023,2.591,2.357,2.796,5.49
		c0.153,2.327-1.024,4.919-3.5,7.703c-5.327,5.993-7.741,12.312-7.175,18.78c0.779,8.911,6.891,14.186,8.115,15.158
		c1.302,1.027,2.931,1.595,4.586,1.595c2.277,0,4.394-1.023,5.805-2.807c1.228-1.549,1.778-3.485,1.549-5.448
		c-0.224-1.93-1.176-3.661-2.702-4.902c-0.157-0.14-2.371-2.154-2.609-4.884c-0.198-2.253,0.977-4.83,3.491-7.657
		C327.385,82.494,329.805,76.202,329.319,69.711z"/>
	<path style="fill:#020202;" d="M383.672,100.953c-0.159-0.14-2.372-2.154-2.611-4.884c-0.197-2.253,0.979-4.83,3.494-7.657
		c5.258-5.918,7.679-12.209,7.194-18.699c-0.696-9.288-7.242-15.001-7.989-15.623c-1.329-1.109-3.019-1.72-4.754-1.72
		c-2.205,0-4.277,0.968-5.684,2.655c-2.611,3.135-2.195,7.805,0.876,10.361c0.025,0.023,2.591,2.357,2.795,5.49
		c0.153,2.327-1.025,4.919-3.5,7.703c-5.328,5.993-7.74,12.312-7.173,18.78c0.795,9.105,7.363,14.56,8.113,15.158
		c1.303,1.027,2.933,1.595,4.587,1.595c2.277,0,4.393-1.023,5.805-2.807c1.227-1.549,1.778-3.485,1.548-5.448
		C386.148,103.925,385.199,102.193,383.672,100.953z"/>
</g>
<path style="fill:#E2453D;" d="M360.587,451.515h19.49c8.967,0,16.239-7.272,16.239-16.239c0-8.97-7.272-16.239-16.239-16.239
	h-100.68h-46.794h-100.68c-8.967,0-16.239,7.27-16.239,16.239c0,8.967,7.272,16.239,16.239,16.239h100.68h2.409h24.898h19.487
	h56.294"/>
<path style="fill:#7C868E;" d="M341.973,402.796c0-8.97-7.272-16.239-16.239-16.239h-38.786h-61.894h-38.786
	c-8.967,0-16.239,7.27-16.239,16.239c0,8.967,7.272,16.239,16.239,16.239h19.299h19.487h56.295h5.599h2.409h16.889h8.009h11.479
	C334.701,419.036,341.973,411.764,341.973,402.796z"/>
<g style="opacity:0.2;">
	<path style="fill:#020202;" d="M140.686,435.275c0-8.97,7.272-16.239,16.239-16.239h-25.003c-8.967,0-16.239,7.27-16.239,16.239
		c0,8.967,7.272,16.239,16.239,16.239h25.003C147.958,451.515,140.686,444.243,140.686,435.275z"/>
</g>
<g style="opacity:0.2;">
	<path style="fill:#020202;" d="M195.03,402.796c0-8.97,7.272-16.239,16.239-16.239h-25.003c-8.967,0-16.239,7.27-16.239,16.239
		c0,8.967,7.272,16.239,16.239,16.239h19.299h5.703C202.302,419.036,195.03,411.764,195.03,402.796z"/>
</g>
<path style="fill:#E2453D;" d="M491.125,141.759H20.874c-6.337,0-11.607,4.538-12.754,10.542
	c4.953,118.456,92.951,215.437,207.295,234.255h9.639h61.894h9.638c114.344-18.818,202.34-115.799,207.296-234.255
	C502.732,146.299,497.463,141.759,491.125,141.759z"/>
<path style="fill:#FF6A5E;" d="M411.209,253.365h66.416c9.058-17.954,16.009-37.154,20.505-57.282H13.87
	c4.495,20.128,11.443,39.328,20.505,57.282h351.211"/>
<path style="fill:#020202;" d="M511.993,152.641c0.026-0.625-0.021-1.25-0.138-1.865c-1.899-9.929-10.617-17.136-20.729-17.136
	H20.874c-10.113,0-18.831,7.207-20.729,17.136c-0.117,0.614-0.163,1.241-0.137,1.865c0.626,14.964,2.583,29.784,5.79,44.291
	c0.032,0.307,0.081,0.615,0.149,0.921c4.573,20.476,11.699,40.384,21.179,59.17c0.119,0.237,0.263,0.456,0.404,0.677
	c9.932,19.584,22.391,37.934,37.155,54.495c29.031,32.563,65.921,57.105,106.614,71.403c-5.71,4.463-9.391,11.405-9.391,19.196
	c0,2.846,0.496,5.579,1.397,8.12h-31.381c-13.431,0-24.359,10.928-24.359,24.359s10.928,24.359,24.359,24.359h203.769
	c4.485,0,8.12-3.634,8.12-8.12c0-4.485-3.634-8.12-8.12-8.12h-203.77c-4.478,0-8.12-3.642-8.12-8.12c0-4.478,3.642-8.12,8.12-8.12
	h54.344h139.466h54.344c4.478,0,8.12,3.642,8.12,8.12c0,4.478-3.642,8.12-8.12,8.12h-19.489c-4.485,0-8.12,3.634-8.12,8.12
	c0,4.485,3.634,8.12,8.12,8.12h19.489c13.431,0,24.359-10.928,24.359-24.359s-10.928-24.359-24.359-24.359h-31.381
	c0.902-2.541,1.397-5.273,1.397-8.12c0-7.792-3.682-14.735-9.392-19.197c40.693-14.297,77.583-38.839,106.614-71.403
	c14.762-16.558,27.218-34.905,37.149-54.483c0.143-0.225,0.289-0.449,0.411-0.691c9.483-18.793,16.609-38.702,21.179-59.169
	c0.068-0.306,0.118-0.615,0.15-0.923C509.41,182.423,511.367,167.604,511.993,152.641z M20.874,149.88h470.252
	c2.086,0,3.915,1.329,4.59,3.247c-0.552,11.833-1.989,23.466-4.228,34.838H20.511c-2.239-11.372-3.676-23.005-4.228-34.838
	C16.959,151.209,18.787,149.88,20.874,149.88z M186.267,410.916c-4.478,0-8.12-3.642-8.12-8.12c0-4.478,3.642-8.12,8.12-8.12h29.148
	h81.171h29.149c4.478,0,8.12,3.642,8.12,8.12c0,4.478-3.642,8.12-8.12,8.12H186.267z M295.915,378.437h-79.832
	c-72.176-12.084-132.9-56.454-167.902-116.951h337.404c4.485,0,8.12-3.634,8.12-8.12c0-4.485-3.634-8.12-8.12-8.12H39.597
	c-6.299-13.099-11.449-26.824-15.303-41.044h463.41c-3.853,14.219-9.003,27.945-15.302,41.042h-61.193
	c-4.485,0-8.12,3.634-8.12,8.12s3.634,8.12,8.12,8.12h52.608C428.815,321.985,368.09,366.353,295.915,378.437z"/>
<g style="opacity:0.2;">
	<path style="fill:#020202;" d="M33.58,152.302c1.148-6.003,6.418-10.542,12.754-10.542H20.874c-6.337,0-11.607,4.538-12.754,10.542
		c4.953,118.456,92.951,215.437,207.295,234.255h9.639h15.823C126.533,367.739,38.535,270.758,33.58,152.302z"/>
</g>
<g>
</g>
<g>
</g>
<g>
</g>
<g>
</g>
<g>
</g>
<g>
</g>
<g>
</g>
<g>
</g>
<g>
</g>
<g>
</g>
<g>
</g>
<g>
</g>
<g>
</g>
<g>
</g>
<g>
</g>
</svg>
